<?xml version="1.0" encoding="utf-8"?>
<!-- Generator: Adobe Illustrator 18.1.1, SVG Export Plug-In . SVG Version: 6.00 Build 0)  -->
<svg version="1.1" id="Layer_1" xmlns="http://www.w3.org/2000/svg" xmlns:xlink="http://www.w3.org/1999/xlink" x="0px" y="0px"
	 viewBox="0 0 196 56" enable-background="new 0 0 196 56" xml:space="preserve">
<g>
	<path fill="#FFFFFF" d="M21.96,22.417c-0.37,2.068-1.329,3.724-2.876,4.966c-1.548,1.243-3.431,1.865-5.647,1.865
		c-2.657,0-4.782-0.869-6.376-2.607c-1.524-1.649-2.287-3.751-2.287-6.303v-6.039c0-2.596,0.751-4.708,2.252-6.336
		c1.595-1.716,3.73-2.574,6.411-2.574c2.171,0,4.048,0.627,5.63,1.881s2.547,2.904,2.894,4.95h-3.708
		c-0.23-0.813-0.646-1.518-1.247-2.112c-0.947-0.945-2.137-1.419-3.568-1.419c-1.687,0-2.969,0.572-3.847,1.716
		c-0.763,1.013-1.144,2.354-1.144,4.026v5.775c0,1.649,0.381,2.981,1.144,3.992c0.901,1.167,2.183,1.749,3.847,1.749
		c1.154,0,2.171-0.318,3.049-0.956c0.878-0.639,1.467-1.496,1.767-2.574H21.96z"/>
	<path fill="#FFFFFF" d="M44.066,20.635c0,3.982-1.79,6.645-5.371,7.986c-1.108,0.417-2.194,0.627-3.257,0.627
		c-1.017,0-2.085-0.204-3.205-0.61c-1.121-0.407-2.051-0.93-2.789-1.568c-1.756-1.539-2.634-3.685-2.634-6.435v-6.534
		c0-3.981,1.79-6.644,5.371-7.986c1.108-0.417,2.194-0.627,3.257-0.627c1.017,0,2.084,0.204,3.205,0.611
		c1.12,0.407,2.05,0.93,2.789,1.567c1.756,1.54,2.634,3.685,2.634,6.435V20.635z M40.393,20.833v-6.931
		c0-1.474-0.445-2.694-1.334-3.663c-0.89-0.968-2.097-1.451-3.621-1.451s-2.731,0.483-3.621,1.451
		c-0.89,0.969-1.334,2.189-1.334,3.663v6.931c0,1.474,0.45,2.695,1.352,3.663c0.9,0.968,2.102,1.451,3.604,1.451
		c1.524,0,2.731-0.483,3.621-1.451C39.948,23.528,40.393,22.307,40.393,20.833z"/>
	<path fill="#FFFFFF" d="M66.762,20.503c0,2.002-0.497,3.729-1.49,5.181c-1.479,2.156-3.673,3.234-6.584,3.234h-8.904V5.817h8.904
		c2.911,0,5.105,1.078,6.584,3.234c0.993,1.452,1.49,3.18,1.49,5.181V20.503z M63.089,20.885v-7.034c0-1.468-0.45-2.641-1.351-3.517
		c-0.901-0.877-2.114-1.315-3.639-1.315h-4.643v16.698h4.643c1.548,0,2.767-0.438,3.655-1.314
		C62.644,23.525,63.089,22.353,63.089,20.885z"/>
	<path fill="#FFFFFF" d="M87.794,28.918H72.305V5.817h15.488v3.201H75.978v6.732h10.117v3.201H75.978v6.765h11.815V28.918z"/>
</g>
<path fill="#FFFFFF" d="M150.56,5.817l-6.236,23.101h-3.178l-4.765-16.664l-0.08,0.004l-4.833,16.66h-3.188l-6.236-23.101h4.008
	l3.883,16.238l0.113-0.002l4.815-16.236h2.946l4.747,16.236l0.113,0.003l4.062-16.239H150.56z"/>
<path fill="#FFFFFF" d="M169.687,28.918h-15.488V5.817h15.488v3.201h-11.815v6.732h10.117v3.201h-10.117v6.765h11.815V28.918z"/>
<path fill="#FFFFFF" d="M191.482,22.384c0,2.09-0.751,3.718-2.253,4.884c-1.386,1.101-3.211,1.65-5.475,1.65h-9.043V5.817h9.286
	c2.01,0,3.673,0.474,4.989,1.419c1.455,1.057,2.183,2.52,2.183,4.39c0,2.816-1.155,4.609-3.465,5.379v0.099
	c1.225,0.353,2.16,1.002,2.807,1.947C191.158,19.997,191.482,21.108,191.482,22.384z M187.497,12.335
	c0-1.028-0.363-1.839-1.091-2.43c-0.729-0.591-1.635-0.887-2.721-0.887h-5.301v6.601h5.544c1.039,0,1.894-0.301,2.563-0.903
	C187.162,14.114,187.497,13.32,187.497,12.335z M187.809,22.285c0-1.09-0.358-1.939-1.074-2.55c-0.717-0.61-1.663-0.916-2.842-0.916
	h-5.509v6.897h5.405c1.085,0,2.026-0.321,2.823-0.964C187.411,24.11,187.809,23.287,187.809,22.285z"/>
<g>
	<path fill="#FFFFFF" d="M13.191,41.632H9.463v10.205H7.912V41.632H4.175v-1.309h9.015V41.632z"/>
	<path fill="#FFFFFF" d="M16.22,43.569c0.594,0,1.13,0.099,1.607,0.297c0.476,0.198,0.884,0.479,1.221,0.844
		s0.597,0.805,0.776,1.321c0.178,0.518,0.269,1.094,0.269,1.733c0,0.643-0.09,1.221-0.269,1.735
		c-0.18,0.514-0.439,0.955-0.776,1.318c-0.338,0.364-0.745,0.645-1.221,0.841c-0.477,0.195-1.013,0.292-1.607,0.292
		c-0.6,0-1.139-0.098-1.619-0.292c-0.479-0.196-0.888-0.476-1.225-0.841c-0.338-0.363-0.597-0.804-0.776-1.318
		s-0.269-1.092-0.269-1.735c0-0.638,0.089-1.215,0.269-1.733c0.18-0.516,0.439-0.957,0.776-1.321
		c0.338-0.364,0.746-0.646,1.225-0.844C15.08,43.668,15.62,43.569,16.22,43.569z M16.22,50.832c0.803,0,1.404-0.27,1.799-0.807
		c0.397-0.539,0.595-1.29,0.595-2.254c0-0.97-0.199-1.725-0.595-2.266c-0.396-0.541-0.996-0.812-1.799-0.812
		c-0.407,0-0.762,0.07-1.065,0.209c-0.302,0.14-0.554,0.341-0.755,0.603c-0.201,0.263-0.351,0.586-0.45,0.968
		c-0.099,0.383-0.148,0.815-0.148,1.297c0,0.964,0.199,1.716,0.599,2.254C14.799,50.562,15.405,50.832,16.22,50.832z"/>
	<path fill="#FFFFFF" d="M25.525,43.569c0.594,0,1.13,0.099,1.607,0.297c0.476,0.198,0.884,0.479,1.221,0.844
		c0.338,0.364,0.597,0.805,0.776,1.321c0.178,0.518,0.269,1.094,0.269,1.733c0,0.643-0.09,1.221-0.269,1.735
		c-0.18,0.514-0.439,0.955-0.776,1.318c-0.338,0.364-0.745,0.645-1.221,0.841c-0.477,0.195-1.013,0.292-1.607,0.292
		c-0.6,0-1.139-0.098-1.619-0.292c-0.479-0.196-0.888-0.476-1.225-0.841c-0.338-0.363-0.597-0.804-0.776-1.318
		c-0.18-0.514-0.269-1.092-0.269-1.735c0-0.638,0.089-1.215,0.269-1.733c0.18-0.516,0.439-0.957,0.776-1.321
		s0.746-0.646,1.225-0.844C24.386,43.668,24.925,43.569,25.525,43.569z M25.525,50.832c0.803,0,1.404-0.27,1.799-0.807
		c0.397-0.539,0.595-1.29,0.595-2.254c0-0.97-0.199-1.725-0.595-2.266c-0.396-0.541-0.996-0.812-1.799-0.812
		c-0.407,0-0.762,0.07-1.065,0.209c-0.302,0.14-0.554,0.341-0.755,0.603c-0.201,0.263-0.351,0.586-0.45,0.968
		c-0.099,0.383-0.148,0.815-0.148,1.297c0,0.964,0.199,1.716,0.599,2.254C24.104,50.562,24.71,50.832,25.525,50.832z"/>
	<path fill="#FFFFFF" d="M32.876,40v11.837h-1.43V40H32.876z"/>
	<path fill="#FFFFFF" d="M40.124,45.039c-0.063,0.117-0.163,0.176-0.297,0.176c-0.081,0-0.172-0.03-0.273-0.088
		c-0.102-0.059-0.227-0.125-0.374-0.198c-0.147-0.071-0.322-0.139-0.527-0.2c-0.203-0.062-0.444-0.092-0.722-0.092
		c-0.242,0-0.458,0.03-0.651,0.092c-0.192,0.061-0.357,0.146-0.494,0.253c-0.137,0.107-0.241,0.232-0.313,0.374
		c-0.072,0.142-0.109,0.296-0.109,0.461c0,0.21,0.06,0.384,0.181,0.522c0.12,0.14,0.281,0.26,0.478,0.362
		c0.198,0.102,0.424,0.191,0.675,0.27c0.252,0.077,0.511,0.16,0.775,0.248c0.265,0.088,0.523,0.186,0.776,0.293
		c0.252,0.107,0.476,0.241,0.674,0.402c0.199,0.16,0.358,0.357,0.478,0.59c0.12,0.233,0.181,0.513,0.181,0.839
		c0,0.375-0.067,0.722-0.2,1.04c-0.134,0.319-0.332,0.595-0.595,0.828c-0.262,0.233-0.584,0.417-0.964,0.55
		s-0.819,0.201-1.318,0.201c-0.568,0-1.081-0.092-1.542-0.277c-0.46-0.184-0.851-0.421-1.173-0.711l0.338-0.546
		c0.043-0.071,0.094-0.124,0.153-0.161s0.133-0.056,0.225-0.056c0.097,0,0.198,0.037,0.305,0.112
		c0.107,0.075,0.238,0.158,0.39,0.249c0.153,0.09,0.339,0.174,0.558,0.249c0.22,0.075,0.493,0.112,0.82,0.112
		c0.278,0,0.522-0.037,0.731-0.107c0.209-0.073,0.383-0.171,0.522-0.295c0.139-0.123,0.242-0.264,0.31-0.426
		c0.067-0.16,0.1-0.331,0.1-0.514c0-0.226-0.06-0.411-0.181-0.559c-0.12-0.146-0.281-0.273-0.478-0.377
		c-0.198-0.104-0.425-0.196-0.679-0.273c-0.254-0.078-0.514-0.16-0.779-0.245c-0.264-0.085-0.525-0.184-0.779-0.293
		c-0.254-0.11-0.48-0.247-0.678-0.414c-0.199-0.167-0.358-0.371-0.478-0.615c-0.12-0.244-0.181-0.54-0.181-0.888
		c0-0.311,0.063-0.609,0.192-0.895c0.129-0.287,0.316-0.539,0.562-0.756s0.549-0.39,0.908-0.518s0.769-0.192,1.23-0.192
		c0.535,0,1.016,0.084,1.443,0.253c0.426,0.169,0.793,0.401,1.104,0.695L40.124,45.039z"/>
	<path fill="#FFFFFF" d="M47.371,51.837v-6.918l-0.9-0.105c-0.113-0.026-0.204-0.069-0.277-0.125
		c-0.072-0.056-0.109-0.138-0.109-0.245v-0.587h1.286V43.07c0-0.467,0.066-0.879,0.198-1.242c0.131-0.361,0.318-0.668,0.562-0.916
		c0.243-0.249,0.536-0.437,0.879-0.566s0.729-0.193,1.158-0.193c0.364,0,0.699,0.054,1.004,0.161L51.14,41.03
		c-0.011,0.128-0.082,0.198-0.213,0.209c-0.131,0.011-0.306,0.015-0.526,0.015c-0.247,0-0.471,0.032-0.672,0.097
		c-0.201,0.064-0.373,0.17-0.518,0.314c-0.144,0.144-0.256,0.335-0.333,0.57c-0.077,0.236-0.116,0.529-0.116,0.877v0.746h2.345
		v1.037h-2.298v6.943H47.371z"/>
	<path fill="#FFFFFF" d="M55.834,43.569c0.594,0,1.13,0.099,1.607,0.297c0.476,0.198,0.884,0.479,1.221,0.844
		s0.597,0.805,0.776,1.321c0.178,0.518,0.269,1.094,0.269,1.733c0,0.643-0.09,1.221-0.269,1.735
		c-0.18,0.514-0.439,0.955-0.776,1.318c-0.338,0.364-0.745,0.645-1.221,0.841c-0.477,0.195-1.013,0.292-1.607,0.292
		c-0.6,0-1.139-0.098-1.619-0.292c-0.479-0.196-0.888-0.476-1.225-0.841c-0.338-0.363-0.597-0.804-0.776-1.318
		s-0.269-1.092-0.269-1.735c0-0.638,0.089-1.215,0.269-1.733c0.18-0.516,0.439-0.957,0.776-1.321
		c0.338-0.364,0.746-0.646,1.225-0.844C54.694,43.668,55.234,43.569,55.834,43.569z M55.834,50.832c0.803,0,1.404-0.27,1.799-0.807
		c0.397-0.539,0.595-1.29,0.595-2.254c0-0.97-0.199-1.725-0.595-2.266c-0.396-0.541-0.996-0.812-1.799-0.812
		c-0.407,0-0.762,0.07-1.065,0.209c-0.302,0.14-0.554,0.341-0.755,0.603c-0.201,0.263-0.351,0.586-0.45,0.968
		c-0.099,0.383-0.148,0.815-0.148,1.297c0,0.964,0.199,1.716,0.599,2.254C54.413,50.562,55.019,50.832,55.834,50.832z"/>
	<path fill="#FFFFFF" d="M63.064,45.327c0.258-0.557,0.574-0.991,0.948-1.305c0.375-0.314,0.833-0.471,1.375-0.471
		c0.171,0,0.335,0.019,0.493,0.057s0.299,0.096,0.422,0.177l-0.104,1.068c-0.032,0.133-0.113,0.2-0.242,0.2
		c-0.074,0-0.185-0.015-0.329-0.047c-0.145-0.032-0.308-0.049-0.49-0.049c-0.257,0-0.486,0.039-0.687,0.114
		c-0.201,0.074-0.381,0.185-0.539,0.333c-0.158,0.146-0.3,0.329-0.426,0.546s-0.24,0.464-0.342,0.744v5.142h-1.438v-8.14h0.819
		c0.156,0,0.263,0.029,0.321,0.089c0.059,0.058,0.1,0.16,0.121,0.305L63.064,45.327z"/>
	<path fill="#FFFFFF" d="M78.588,44.018v0.531c0,0.176-0.112,0.288-0.338,0.338l-0.923,0.12c0.182,0.353,0.273,0.744,0.273,1.173
		c0,0.397-0.076,0.757-0.229,1.08c-0.153,0.325-0.363,0.602-0.631,0.832c-0.268,0.23-0.589,0.407-0.964,0.531
		c-0.375,0.123-0.783,0.185-1.221,0.185c-0.381,0-0.74-0.046-1.077-0.138c-0.171,0.107-0.303,0.221-0.393,0.342
		c-0.091,0.12-0.137,0.243-0.137,0.365c0,0.193,0.078,0.34,0.236,0.439c0.158,0.099,0.365,0.17,0.623,0.213
		c0.257,0.043,0.55,0.069,0.879,0.08c0.33,0.011,0.668,0.028,1.013,0.053s0.683,0.066,1.013,0.125
		c0.329,0.059,0.622,0.156,0.879,0.289c0.258,0.133,0.465,0.318,0.623,0.555c0.158,0.235,0.236,0.541,0.236,0.916
		c0,0.348-0.087,0.686-0.261,1.013s-0.425,0.617-0.751,0.872s-0.727,0.458-1.201,0.611c-0.474,0.153-1.008,0.229-1.603,0.229
		c-0.595,0-1.115-0.059-1.56-0.176c-0.444-0.118-0.814-0.276-1.108-0.475c-0.295-0.198-0.516-0.427-0.663-0.686
		c-0.147-0.26-0.221-0.533-0.221-0.817c0-0.401,0.126-0.742,0.378-1.02c0.252-0.278,0.597-0.5,1.036-0.666
		c-0.241-0.107-0.432-0.25-0.574-0.43s-0.213-0.422-0.213-0.728c0-0.117,0.02-0.239,0.063-0.365
		c0.043-0.126,0.109-0.252,0.197-0.377c0.089-0.126,0.198-0.245,0.326-0.358c0.129-0.112,0.278-0.211,0.45-0.297
		c-0.402-0.226-0.715-0.525-0.941-0.896c-0.225-0.372-0.338-0.804-0.338-1.297c0-0.397,0.076-0.757,0.229-1.08
		c0.153-0.325,0.365-0.6,0.64-0.828c0.273-0.228,0.598-0.404,0.976-0.527c0.377-0.123,0.791-0.185,1.242-0.185
		c0.354,0,0.683,0.039,0.988,0.116c0.305,0.077,0.584,0.191,0.836,0.342H78.588z M77.134,52.277c0-0.198-0.056-0.359-0.169-0.482
		c-0.112-0.123-0.263-0.219-0.454-0.289c-0.19-0.07-0.412-0.119-0.663-0.149c-0.252-0.028-0.518-0.052-0.8-0.068
		c-0.281-0.016-0.566-0.031-0.856-0.048c-0.289-0.015-0.568-0.043-0.835-0.08c-0.3,0.139-0.545,0.314-0.735,0.526
		s-0.285,0.459-0.285,0.743c0,0.183,0.046,0.353,0.14,0.512c0.095,0.157,0.238,0.295,0.43,0.408
		c0.193,0.116,0.435,0.206,0.728,0.273c0.291,0.068,0.636,0.101,1.032,0.101c0.386,0,0.732-0.034,1.037-0.104
		c0.305-0.07,0.563-0.169,0.775-0.298c0.212-0.128,0.374-0.281,0.486-0.458C77.078,52.688,77.134,52.492,77.134,52.277z
		 M74.555,47.86c0.289,0,0.543-0.041,0.763-0.121c0.219-0.081,0.404-0.192,0.555-0.338c0.149-0.145,0.262-0.317,0.338-0.518
		c0.074-0.201,0.112-0.422,0.112-0.663c0-0.498-0.152-0.894-0.454-1.189c-0.303-0.295-0.741-0.442-1.314-0.442
		c-0.578,0-1.019,0.147-1.322,0.442c-0.303,0.295-0.454,0.691-0.454,1.189c0,0.241,0.039,0.462,0.116,0.663s0.191,0.373,0.342,0.518
		c0.149,0.145,0.334,0.257,0.555,0.338C74.011,47.819,74.266,47.86,74.555,47.86z"/>
	<path fill="#FFFFFF" d="M80.059,44.846c0.449-0.434,0.934-0.758,1.454-0.972c0.519-0.215,1.095-0.322,1.727-0.322
		c0.455,0,0.86,0.075,1.214,0.226c0.353,0.15,0.65,0.359,0.891,0.627c0.242,0.268,0.424,0.592,0.547,0.973
		c0.123,0.381,0.185,0.798,0.185,1.253v5.207h-0.635c-0.14,0-0.246-0.024-0.321-0.069c-0.075-0.045-0.134-0.135-0.176-0.269
		l-0.161-0.772c-0.214,0.198-0.424,0.374-0.627,0.527s-0.418,0.281-0.643,0.385c-0.225,0.105-0.464,0.185-0.719,0.241
		c-0.255,0.057-0.537,0.085-0.848,0.085c-0.316,0-0.613-0.044-0.891-0.132c-0.279-0.088-0.521-0.221-0.728-0.398
		c-0.206-0.176-0.37-0.4-0.49-0.671c-0.12-0.271-0.181-0.591-0.181-0.961c0-0.32,0.088-0.63,0.265-0.928
		c0.176-0.298,0.463-0.561,0.859-0.792c0.397-0.23,0.914-0.419,1.551-0.565c0.637-0.148,1.42-0.232,2.346-0.254V46.63
		c0-0.632-0.137-1.11-0.41-1.435c-0.274-0.324-0.673-0.486-1.197-0.486c-0.354,0-0.649,0.044-0.888,0.132
		c-0.239,0.088-0.445,0.188-0.619,0.298c-0.174,0.11-0.324,0.21-0.449,0.298c-0.127,0.088-0.25,0.132-0.374,0.132
		c-0.097,0-0.18-0.025-0.249-0.076s-0.128-0.114-0.176-0.189L80.059,44.846z M84.678,48.172c-0.659,0.021-1.22,0.074-1.683,0.156
		c-0.463,0.084-0.842,0.192-1.133,0.327c-0.292,0.133-0.504,0.291-0.635,0.473c-0.131,0.183-0.197,0.386-0.197,0.611
		c0,0.215,0.035,0.4,0.104,0.555c0.07,0.156,0.166,0.283,0.286,0.383c0.12,0.099,0.262,0.171,0.426,0.216
		c0.163,0.046,0.339,0.068,0.527,0.068c0.252,0,0.482-0.025,0.69-0.075c0.21-0.052,0.406-0.125,0.591-0.221s0.361-0.211,0.53-0.346
		c0.169-0.133,0.333-0.286,0.494-0.458V48.172z"/>
	<path fill="#FFFFFF" d="M88.447,51.837v-8.14h0.86c0.203,0,0.329,0.1,0.377,0.298l0.104,0.835c0.3-0.369,0.637-0.672,1.013-0.908
		c0.375-0.235,0.809-0.353,1.302-0.353c0.547,0,0.99,0.153,1.33,0.458c0.341,0.305,0.586,0.718,0.735,1.237
		c0.118-0.295,0.27-0.549,0.455-0.764c0.185-0.213,0.392-0.39,0.622-0.529c0.23-0.14,0.475-0.242,0.735-0.306
		c0.26-0.063,0.523-0.096,0.791-0.096c0.429,0,0.81,0.068,1.146,0.204c0.334,0.137,0.618,0.336,0.851,0.599
		c0.233,0.263,0.411,0.586,0.534,0.968c0.124,0.383,0.185,0.821,0.185,1.314v5.183h-1.438v-5.183c0-0.637-0.14-1.121-0.418-1.451
		c-0.278-0.329-0.68-0.493-1.205-0.493c-0.235,0-0.459,0.042-0.671,0.125s-0.398,0.205-0.559,0.365
		c-0.16,0.16-0.288,0.362-0.382,0.607c-0.094,0.243-0.141,0.526-0.141,0.847v5.183h-1.438v-5.183c0-0.654-0.131-1.142-0.393-1.462
		c-0.262-0.322-0.646-0.483-1.149-0.483c-0.354,0-0.68,0.096-0.98,0.285c-0.3,0.191-0.576,0.449-0.828,0.776v6.067H88.447z"/>
	<path fill="#FFFFFF" d="M108.463,50.695c-0.177,0.215-0.389,0.4-0.635,0.559c-0.246,0.157-0.511,0.288-0.791,0.389
		c-0.282,0.102-0.572,0.178-0.872,0.229c-0.3,0.051-0.598,0.076-0.892,0.076c-0.562,0-1.08-0.095-1.554-0.285
		c-0.475-0.19-0.885-0.469-1.23-0.835c-0.346-0.368-0.615-0.821-0.807-1.363c-0.193-0.541-0.29-1.162-0.29-1.864
		c0-0.568,0.087-1.099,0.261-1.591c0.174-0.492,0.425-0.92,0.751-1.281s0.727-0.646,1.197-0.851c0.472-0.206,1.002-0.31,1.591-0.31
		c0.488,0,0.939,0.082,1.354,0.245s0.774,0.399,1.076,0.707c0.303,0.307,0.54,0.688,0.712,1.14c0.171,0.453,0.257,0.968,0.257,1.547
		c0,0.225-0.024,0.374-0.072,0.449c-0.048,0.075-0.14,0.113-0.273,0.113h-5.44c0.016,0.515,0.087,0.962,0.213,1.343
		s0.301,0.697,0.527,0.951c0.225,0.255,0.492,0.445,0.803,0.571s0.659,0.189,1.045,0.189c0.359,0,0.669-0.042,0.928-0.125
		c0.26-0.084,0.484-0.173,0.672-0.269c0.187-0.097,0.344-0.187,0.47-0.27s0.234-0.125,0.326-0.125c0.117,0,0.209,0.046,0.273,0.137
		L108.463,50.695z M107.305,46.879c0-0.333-0.046-0.636-0.141-0.913c-0.094-0.276-0.23-0.515-0.41-0.715
		c-0.18-0.202-0.398-0.357-0.655-0.467c-0.257-0.11-0.549-0.164-0.876-0.164c-0.686,0-1.228,0.199-1.627,0.599
		c-0.399,0.399-0.646,0.952-0.743,1.66H107.305z"/>
	<path fill="#FFFFFF" d="M121.575,40v11.837h-0.851c-0.204,0-0.332-0.099-0.386-0.298l-0.129-0.988
		c-0.348,0.417-0.744,0.755-1.189,1.013c-0.445,0.256-0.959,0.385-1.542,0.385c-0.467,0-0.889-0.09-1.269-0.269
		c-0.381-0.18-0.705-0.443-0.973-0.791s-0.474-0.783-0.618-1.303c-0.145-0.519-0.217-1.116-0.217-1.791
		c0-0.6,0.081-1.159,0.241-1.676c0.161-0.517,0.391-0.966,0.691-1.346c0.3-0.381,0.669-0.679,1.105-0.895
		c0.436-0.217,0.928-0.327,1.475-0.327c0.498,0,0.924,0.085,1.281,0.254c0.356,0.169,0.673,0.403,0.952,0.703V40H121.575z
		 M120.146,45.632c-0.269-0.358-0.558-0.608-0.869-0.75c-0.311-0.142-0.659-0.213-1.044-0.213c-0.756,0-1.337,0.271-1.745,0.81
		c-0.406,0.542-0.611,1.314-0.611,2.315c0,0.53,0.046,0.984,0.137,1.361c0.091,0.378,0.226,0.689,0.402,0.933
		c0.177,0.243,0.393,0.421,0.651,0.533c0.257,0.114,0.548,0.17,0.875,0.17c0.472,0,0.882-0.107,1.234-0.322
		c0.35-0.213,0.674-0.516,0.968-0.907V45.632z"/>
	<path fill="#FFFFFF" d="M130.639,50.695c-0.177,0.215-0.389,0.4-0.635,0.559c-0.246,0.157-0.511,0.288-0.791,0.389
		c-0.282,0.102-0.572,0.178-0.872,0.229c-0.3,0.051-0.598,0.076-0.892,0.076c-0.562,0-1.08-0.095-1.554-0.285
		c-0.475-0.19-0.885-0.469-1.23-0.835c-0.346-0.368-0.615-0.821-0.807-1.363c-0.193-0.541-0.29-1.162-0.29-1.864
		c0-0.568,0.087-1.099,0.261-1.591c0.174-0.492,0.425-0.92,0.751-1.281c0.327-0.361,0.727-0.646,1.197-0.851
		c0.472-0.206,1.002-0.31,1.591-0.31c0.488,0,0.939,0.082,1.354,0.245c0.415,0.163,0.774,0.399,1.076,0.707
		c0.303,0.307,0.54,0.688,0.712,1.14c0.171,0.453,0.257,0.968,0.257,1.547c0,0.225-0.024,0.374-0.072,0.449
		c-0.048,0.075-0.14,0.113-0.273,0.113h-5.44c0.016,0.515,0.087,0.962,0.213,1.343c0.126,0.381,0.301,0.697,0.527,0.951
		c0.225,0.255,0.492,0.445,0.803,0.571c0.311,0.126,0.659,0.189,1.045,0.189c0.359,0,0.669-0.042,0.928-0.125
		c0.26-0.084,0.484-0.173,0.672-0.269c0.187-0.097,0.344-0.187,0.47-0.27s0.234-0.125,0.326-0.125c0.117,0,0.209,0.046,0.273,0.137
		L130.639,50.695z M129.481,46.879c0-0.333-0.046-0.636-0.141-0.913c-0.094-0.276-0.23-0.515-0.41-0.715
		c-0.18-0.202-0.398-0.357-0.655-0.467c-0.257-0.11-0.549-0.164-0.876-0.164c-0.686,0-1.228,0.199-1.627,0.599
		c-0.399,0.399-0.646,0.952-0.743,1.66H129.481z"/>
	<path fill="#FFFFFF" d="M139.509,43.697l-3.318,8.14h-1.286l-3.318-8.14h1.165c0.117,0,0.214,0.029,0.289,0.089
		c0.075,0.058,0.126,0.128,0.153,0.209l2.065,5.239c0.064,0.198,0.12,0.391,0.169,0.578s0.094,0.374,0.137,0.562
		c0.043-0.188,0.088-0.375,0.137-0.562s0.107-0.381,0.177-0.578l2.089-5.239c0.032-0.086,0.086-0.157,0.161-0.213
		c0.074-0.056,0.163-0.085,0.264-0.085H139.509z"/>
	<path fill="#FFFFFF" d="M147.399,50.695c-0.177,0.215-0.389,0.4-0.635,0.559c-0.246,0.157-0.511,0.288-0.791,0.389
		c-0.282,0.102-0.572,0.178-0.872,0.229c-0.3,0.051-0.598,0.076-0.892,0.076c-0.562,0-1.08-0.095-1.554-0.285
		c-0.475-0.19-0.885-0.469-1.23-0.835c-0.346-0.368-0.615-0.821-0.807-1.363c-0.193-0.541-0.29-1.162-0.29-1.864
		c0-0.568,0.087-1.099,0.261-1.591c0.174-0.492,0.425-0.92,0.751-1.281s0.727-0.646,1.197-0.851c0.472-0.206,1.002-0.31,1.591-0.31
		c0.488,0,0.939,0.082,1.354,0.245c0.415,0.163,0.774,0.399,1.076,0.707c0.303,0.307,0.54,0.688,0.712,1.14
		c0.171,0.453,0.257,0.968,0.257,1.547c0,0.225-0.024,0.374-0.072,0.449c-0.048,0.075-0.14,0.113-0.273,0.113h-5.44
		c0.016,0.515,0.087,0.962,0.213,1.343c0.126,0.381,0.301,0.697,0.527,0.951c0.225,0.255,0.492,0.445,0.803,0.571
		s0.659,0.189,1.045,0.189c0.359,0,0.669-0.042,0.928-0.125c0.26-0.084,0.484-0.173,0.672-0.269c0.187-0.097,0.344-0.187,0.47-0.27
		c0.126-0.083,0.234-0.125,0.326-0.125c0.117,0,0.209,0.046,0.273,0.137L147.399,50.695z M146.242,46.879
		c0-0.333-0.046-0.636-0.141-0.913c-0.094-0.276-0.23-0.515-0.41-0.715c-0.18-0.202-0.398-0.357-0.655-0.467
		s-0.549-0.164-0.876-0.164c-0.686,0-1.228,0.199-1.627,0.599c-0.399,0.399-0.646,0.952-0.743,1.66H146.242z"/>
	<path fill="#FFFFFF" d="M150.951,40v11.837h-1.43V40H150.951z"/>
	<path fill="#FFFFFF" d="M156.889,43.569c0.594,0,1.13,0.099,1.607,0.297c0.476,0.198,0.884,0.479,1.221,0.844
		c0.338,0.364,0.597,0.805,0.776,1.321c0.178,0.518,0.269,1.094,0.269,1.733c0,0.643-0.09,1.221-0.269,1.735
		c-0.18,0.514-0.439,0.955-0.776,1.318c-0.338,0.364-0.745,0.645-1.221,0.841c-0.477,0.195-1.013,0.292-1.607,0.292
		c-0.6,0-1.139-0.098-1.619-0.292c-0.479-0.196-0.888-0.476-1.225-0.841c-0.338-0.363-0.597-0.804-0.776-1.318
		S153,48.406,153,47.763c0-0.638,0.089-1.215,0.269-1.733c0.18-0.516,0.439-0.957,0.776-1.321c0.338-0.364,0.746-0.646,1.225-0.844
		S156.289,43.569,156.889,43.569z M156.889,50.832c0.803,0,1.404-0.27,1.799-0.807c0.397-0.539,0.595-1.29,0.595-2.254
		c0-0.97-0.199-1.725-0.595-2.266c-0.396-0.541-0.996-0.812-1.799-0.812c-0.407,0-0.762,0.07-1.065,0.209
		c-0.302,0.14-0.554,0.341-0.755,0.603c-0.201,0.263-0.351,0.586-0.45,0.968c-0.099,0.383-0.148,0.815-0.148,1.297
		c0,0.964,0.199,1.716,0.599,2.254C155.468,50.562,156.074,50.832,156.889,50.832z"/>
	<path fill="#FFFFFF" d="M164.129,44.957c0.343-0.422,0.74-0.763,1.189-1.019c0.45-0.258,0.964-0.387,1.542-0.387
		c0.472,0,0.898,0.09,1.278,0.27c0.381,0.18,0.704,0.444,0.972,0.795c0.269,0.351,0.474,0.786,0.619,1.306
		c0.145,0.519,0.217,1.117,0.217,1.791c0,0.601-0.081,1.159-0.241,1.677c-0.161,0.516-0.393,0.963-0.695,1.341
		c-0.303,0.377-0.672,0.675-1.109,0.892c-0.436,0.216-0.928,0.325-1.474,0.325c-0.499,0-0.925-0.084-1.282-0.254
		c-0.356-0.168-0.671-0.402-0.944-0.703v3.601h-1.438V43.697h0.86c0.203,0,0.329,0.1,0.377,0.298L164.129,44.957z M164.201,49.876
		c0.262,0.353,0.549,0.602,0.86,0.746c0.311,0.146,0.659,0.217,1.045,0.217c0.76,0,1.344-0.27,1.751-0.81
		c0.407-0.542,0.611-1.314,0.611-2.315c0-0.529-0.046-0.985-0.14-1.365c-0.095-0.381-0.229-0.692-0.406-0.936
		c-0.176-0.244-0.393-0.422-0.65-0.534c-0.258-0.112-0.549-0.169-0.876-0.169c-0.467,0-0.875,0.106-1.225,0.321
		c-0.351,0.215-0.674,0.517-0.968,0.907V49.876z"/>
	<path fill="#FFFFFF" d="M178.567,50.695c-0.177,0.215-0.389,0.4-0.635,0.559c-0.246,0.157-0.511,0.288-0.791,0.389
		c-0.282,0.102-0.572,0.178-0.872,0.229c-0.3,0.051-0.598,0.076-0.892,0.076c-0.562,0-1.08-0.095-1.554-0.285
		c-0.475-0.19-0.885-0.469-1.23-0.835c-0.346-0.368-0.615-0.821-0.807-1.363c-0.193-0.541-0.29-1.162-0.29-1.864
		c0-0.568,0.087-1.099,0.261-1.591c0.174-0.492,0.425-0.92,0.751-1.281s0.727-0.646,1.197-0.851c0.472-0.206,1.002-0.31,1.591-0.31
		c0.488,0,0.939,0.082,1.354,0.245s0.774,0.399,1.076,0.707c0.303,0.307,0.54,0.688,0.712,1.14c0.171,0.453,0.257,0.968,0.257,1.547
		c0,0.225-0.024,0.374-0.072,0.449c-0.048,0.075-0.14,0.113-0.273,0.113h-5.44c0.016,0.515,0.087,0.962,0.213,1.343
		s0.301,0.697,0.527,0.951c0.225,0.255,0.492,0.445,0.803,0.571c0.311,0.126,0.659,0.189,1.045,0.189
		c0.359,0,0.669-0.042,0.928-0.125c0.26-0.084,0.484-0.173,0.672-0.269c0.187-0.097,0.344-0.187,0.47-0.27s0.234-0.125,0.326-0.125
		c0.117,0,0.209,0.046,0.273,0.137L178.567,50.695z M177.409,46.879c0-0.333-0.046-0.636-0.141-0.913
		c-0.094-0.276-0.23-0.515-0.41-0.715c-0.18-0.202-0.398-0.357-0.655-0.467s-0.549-0.164-0.876-0.164
		c-0.686,0-1.228,0.199-1.627,0.599c-0.399,0.399-0.646,0.952-0.743,1.66H177.409z"/>
	<path fill="#FFFFFF" d="M181.997,45.327c0.258-0.557,0.574-0.991,0.948-1.305c0.375-0.314,0.833-0.471,1.375-0.471
		c0.171,0,0.335,0.019,0.493,0.057c0.158,0.038,0.299,0.096,0.422,0.177l-0.104,1.068c-0.032,0.133-0.113,0.2-0.242,0.2
		c-0.074,0-0.185-0.015-0.329-0.047c-0.145-0.032-0.308-0.049-0.49-0.049c-0.257,0-0.486,0.039-0.687,0.114
		c-0.201,0.074-0.381,0.185-0.539,0.333c-0.158,0.146-0.3,0.329-0.426,0.546s-0.24,0.464-0.342,0.744v5.142h-1.438v-8.14h0.819
		c0.156,0,0.263,0.029,0.321,0.089c0.059,0.058,0.1,0.16,0.121,0.305L181.997,45.327z"/>
	<path fill="#FFFFFF" d="M191.375,45.039c-0.063,0.117-0.163,0.176-0.297,0.176c-0.081,0-0.172-0.03-0.273-0.088
		c-0.102-0.059-0.227-0.125-0.374-0.198c-0.147-0.071-0.322-0.139-0.527-0.2c-0.203-0.062-0.444-0.092-0.722-0.092
		c-0.242,0-0.458,0.03-0.651,0.092c-0.192,0.061-0.357,0.146-0.494,0.253c-0.137,0.107-0.241,0.232-0.313,0.374
		c-0.072,0.142-0.109,0.296-0.109,0.461c0,0.21,0.06,0.384,0.181,0.522c0.12,0.14,0.281,0.26,0.478,0.362
		c0.198,0.102,0.424,0.191,0.675,0.27c0.252,0.077,0.511,0.16,0.775,0.248c0.266,0.088,0.523,0.186,0.776,0.293
		c0.252,0.107,0.476,0.241,0.674,0.402c0.199,0.16,0.358,0.357,0.478,0.59c0.12,0.233,0.181,0.513,0.181,0.839
		c0,0.375-0.067,0.722-0.2,1.04c-0.134,0.319-0.332,0.595-0.595,0.828c-0.262,0.233-0.584,0.417-0.964,0.55
		s-0.819,0.201-1.318,0.201c-0.568,0-1.081-0.092-1.542-0.277c-0.46-0.184-0.851-0.421-1.173-0.711l0.338-0.546
		c0.043-0.071,0.094-0.124,0.153-0.161c0.059-0.038,0.133-0.056,0.225-0.056c0.097,0,0.198,0.037,0.305,0.112
		c0.107,0.075,0.238,0.158,0.39,0.249c0.153,0.09,0.339,0.174,0.558,0.249c0.22,0.075,0.493,0.112,0.82,0.112
		c0.278,0,0.522-0.037,0.731-0.107c0.209-0.073,0.383-0.171,0.522-0.295c0.139-0.123,0.242-0.264,0.31-0.426
		c0.067-0.16,0.1-0.331,0.1-0.514c0-0.226-0.06-0.411-0.181-0.559c-0.12-0.146-0.281-0.273-0.478-0.377
		c-0.198-0.104-0.425-0.196-0.679-0.273c-0.254-0.078-0.514-0.16-0.779-0.245c-0.264-0.085-0.525-0.184-0.779-0.293
		c-0.254-0.11-0.48-0.247-0.678-0.414c-0.199-0.167-0.358-0.371-0.478-0.615c-0.12-0.244-0.181-0.54-0.181-0.888
		c0-0.311,0.063-0.609,0.192-0.895c0.129-0.287,0.316-0.539,0.562-0.756c0.246-0.217,0.549-0.39,0.908-0.518
		c0.359-0.128,0.769-0.192,1.23-0.192c0.535,0,1.016,0.084,1.443,0.253c0.426,0.169,0.793,0.401,1.104,0.695L191.375,45.039z"/>
</g>
<g>
	<path fill="#AAAAAA" d="M102,9.092c0,1.049,0.832,1.908,1.85,1.908h2.3c1.017,0,1.85-0.859,1.85-1.908V6.908
		C108,5.859,107.168,5,106.15,5h-2.3C102.832,5,102,5.859,102,6.908V9.092z"/>
	<path fill="#AAAAAA" d="M102,18.092c0,1.049,0.832,1.908,1.85,1.908h2.3c1.017,0,1.85-0.859,1.85-1.908v-2.184
		c0-1.049-0.832-1.908-1.85-1.908h-2.3c-1.017,0-1.85,0.859-1.85,1.908V18.092z"/>
	<path fill="#AAAAAA" d="M102,27.092c0,1.049,0.832,1.908,1.85,1.908h2.3c1.017,0,1.85-0.859,1.85-1.908v-2.184
		c0-1.049-0.832-1.908-1.85-1.908h-2.3c-1.017,0-1.85,0.859-1.85,1.908V27.092z"/>
	<path fill="#AAAAAA" d="M112.908,14c-1.049,0-1.908,0.832-1.908,1.85v2.3c0,1.017,0.859,1.85,1.908,1.85h2.184
		c1.049,0,1.908-0.832,1.908-1.85v-2.3c0-1.017-0.859-1.85-1.908-1.85H112.908z"/>
	<path fill="#AAAAAA" d="M94.908,14C93.859,14,93,14.832,93,15.85v2.3c0,1.017,0.859,1.85,1.908,1.85h2.184
		C98.141,20,99,19.168,99,18.15v-2.3c0-1.017-0.859-1.85-1.908-1.85H94.908z"/>
</g>
</svg>
